<?xml version="1.0" encoding="UTF-8"?>
<!DOCTYPE svg PUBLIC "-//W3C//DTD SVG 1.1//EN" "http://www.w3.org/Graphics/SVG/1.1/DTD/svg11.dtd">
<svg xmlns="http://www.w3.org/2000/svg" version="1.1" width="316px" height="124px" style="shape-rendering:geometricPrecision; text-rendering:geometricPrecision; image-rendering:optimizeQuality; fill-rule:evenodd; clip-rule:evenodd" xmlns:xlink="http://www.w3.org/1999/xlink">
<g><path style="opacity:1" fill="#3e85f3" d="M 137.5,-0.5 C 150.833,-0.5 164.167,-0.5 177.5,-0.5C 183.235,0.511864 188.902,1.8452 194.5,3.5C 186.35,4.49272 178.017,4.82605 169.5,4.5C 157.477,4.30081 145.477,4.63414 133.5,5.5C 127.642,5.8222 121.975,5.48886 116.5,4.5C 123.384,2.29793 130.384,0.631265 137.5,-0.5 Z"/></g>
<g><path style="opacity:0.476" fill="#fefefe" d="M 169.5,4.5 C 181.629,5.52651 193.629,7.85984 205.5,11.5C 220.353,16.6603 234.353,23.6603 247.5,32.5C 257.428,39.7585 266.428,48.0918 274.5,57.5C 281.59,66.2681 287.923,75.6015 293.5,85.5C 294.333,85.8333 295.167,86.1667 296,86.5C 297.376,86.3158 298.209,85.6491 298.5,84.5C 305.127,96.7087 309.794,109.709 312.5,123.5C 209.167,123.5 105.833,123.5 2.5,123.5C 5.20624,109.709 9.8729,96.7087 16.5,84.5C 16.7911,85.6491 17.6244,86.3158 19,86.5C 19.8333,86.1667 20.6667,85.8333 21.5,85.5C 27.0765,75.6015 33.4099,66.2681 40.5,57.5C 45.8333,51.5 51.5,45.8333 57.5,40.5C 65.1864,34.3295 73.1864,28.6628 81.5,23.5C 89.5844,19.2503 97.9177,15.5837 106.5,12.5C 115.547,9.98911 124.547,7.65578 133.5,5.5C 145.477,4.63414 157.477,4.30081 169.5,4.5 Z"/></g>
<g><path style="opacity:0.996" fill="#438ef3" d="M 116.5,4.5 C 121.975,5.48886 127.642,5.8222 133.5,5.5C 124.547,7.65578 115.547,9.98911 106.5,12.5C 104.031,11.6829 101.365,11.1829 98.5,11C 99.056,10.6174 99.3893,10.1174 99.5,9.5C 104.919,7.06112 110.585,5.39446 116.5,4.5 Z"/></g>
<g><path style="opacity:0.996" fill="#4a90f4" d="M 194.5,3.5 C 201.754,4.69667 208.754,6.69667 215.5,9.5C 215.611,10.1174 215.944,10.6174 216.5,11C 212.848,11.4986 209.182,11.6653 205.5,11.5C 193.629,7.85984 181.629,5.52651 169.5,4.5C 178.017,4.82605 186.35,4.49272 194.5,3.5 Z"/></g>
<g><path style="opacity:0.978" fill="#5c9ff5" d="M 99.5,9.5 C 99.3893,10.1174 99.056,10.6174 98.5,11C 101.365,11.1829 104.031,11.6829 106.5,12.5C 97.9177,15.5837 89.5844,19.2503 81.5,23.5C 79.1432,23.6633 76.8098,23.4966 74.5,23C 75.056,22.6174 75.3893,22.1174 75.5,21.5C 82.9033,16.465 90.9033,12.465 99.5,9.5 Z"/></g>
<g><path style="opacity:0.978" fill="#69a6f6" d="M 215.5,9.5 C 228.892,14.36 241.225,21.0266 252.5,29.5C 252.414,30.4959 252.748,31.3292 253.5,32C 251.527,32.4955 249.527,32.6621 247.5,32.5C 234.353,23.6603 220.353,16.6603 205.5,11.5C 209.182,11.6653 212.848,11.4986 216.5,11C 215.944,10.6174 215.611,10.1174 215.5,9.5 Z"/></g>
<g><path style="opacity:0.924" fill="#82b7f8" d="M 75.5,21.5 C 75.3893,22.1174 75.056,22.6174 74.5,23C 76.8098,23.4966 79.1432,23.6633 81.5,23.5C 73.1864,28.6628 65.1864,34.3295 57.5,40.5C 55.4727,40.6621 53.4727,40.4955 51.5,40C 52.056,39.6174 52.3893,39.1174 52.5,38.5C 59.2678,31.6162 66.9345,25.9495 75.5,21.5 Z"/></g>
<g><path style="opacity:0.89" fill="#9cc6f9" d="M 252.5,29.5 C 262.46,36.4595 271.127,44.7929 278.5,54.5C 278.414,55.4959 278.748,56.3292 279.5,57C 277.866,57.4935 276.199,57.6602 274.5,57.5C 266.428,48.0918 257.428,39.7585 247.5,32.5C 249.527,32.6621 251.527,32.4955 253.5,32C 252.748,31.3292 252.414,30.4959 252.5,29.5 Z"/></g>
<g><path style="opacity:0.849" fill="#a8cdfa" d="M 52.5,38.5 C 52.3893,39.1174 52.056,39.6174 51.5,40C 53.4727,40.4955 55.4727,40.6621 57.5,40.5C 51.5,45.8333 45.8333,51.5 40.5,57.5C 38.8008,57.6602 37.1341,57.4935 35.5,57C 36.2524,56.3292 36.5858,55.4959 36.5,54.5C 40.8545,48.1455 46.1878,42.8122 52.5,38.5 Z"/></g>
<g><path style="opacity:0.622" fill="#d3e6fc" d="M 36.5,54.5 C 36.5858,55.4959 36.2524,56.3292 35.5,57C 37.1341,57.4935 38.8008,57.6602 40.5,57.5C 33.4099,66.2681 27.0765,75.6015 21.5,85.5C 20.6667,85.8333 19.8333,86.1667 19,86.5C 17.6244,86.3158 16.7911,85.6491 16.5,84.5C 21.6812,73.4594 28.3479,63.4594 36.5,54.5 Z"/></g>
<g><path style="opacity:0.622" fill="#d4e6fc" d="M 278.5,54.5 C 286.652,63.4594 293.319,73.4594 298.5,84.5C 298.209,85.6491 297.376,86.3158 296,86.5C 295.167,86.1667 294.333,85.8333 293.5,85.5C 287.923,75.6015 281.59,66.2681 274.5,57.5C 276.199,57.6602 277.866,57.4935 279.5,57C 278.748,56.3292 278.414,55.4959 278.5,54.5 Z"/></g>
</svg>
